<svg width="50" height="50" viewBox="0 0 50 50" fill="none" xmlns="http://www.w3.org/2000/svg">
<circle cx="25" cy="25" r="25" fill="#131313"/>
<path d="M32.1325 24.5L42 34.3575L38.525 34.3575C37.928 34.3583 37.3551 34.1218 36.9325 33.7L27.7275 24.5L36.9325 15.2925C37.3551 14.8707 37.928 14.6342 38.525 14.635L42 14.635L32.1325 24.5ZM14.065 15.2925C13.643 14.8713 13.0712 14.6349 12.475 14.635L9 14.635L18.865 24.5L9 34.3575H12.475C13.0712 34.3576 13.643 34.1212 14.065 33.7L23.2725 24.5L14.065 15.2925ZM25.5 26.7275L16.2925 35.935C15.8713 36.357 15.6349 36.9288 15.635 37.525L15.635 41L25.5 31.135L35.365 41V37.525C35.3645 36.9285 35.1271 36.3566 34.705 35.935L25.5 26.7275ZM25.5 22.2725L34.705 13.065C35.1271 12.6434 35.3645 12.0715 35.365 11.475V8L25.5 17.865L15.635 8L15.635 11.475C15.6349 12.0712 15.8713 12.643 16.2925 13.065L25.5 22.2725Z" fill="url(#paint0_linear_565_325)"/>
<defs>
<linearGradient id="paint0_linear_565_325" x1="9" y1="24.5" x2="42" y2="24.5" gradientUnits="userSpaceOnUse">
<stop stop-color="#00BFFF"/>
<stop offset="1" stop-color="#6619FF"/>
</linearGradient>
</defs>
</svg>
