<svg width="237" height="44" viewBox="0 0 237 44" fill="none" xmlns="http://www.w3.org/2000/svg">
<g filter="url(#filter0_d_402_147)">
<path d="M20.176 6.44C19.344 6.344 18.608 6.296 17.968 6.296C16.848 6.296 16.032 6.504 15.52 6.92C15.008 7.336 14.752 8.104 14.752 9.224V11H20.128V16.328H14.752V35H8.848V16.328H4.864V11H8.848V8.84C8.848 5.8 9.472 3.704 10.72 2.552C11.968 1.368 13.856 0.775997 16.384 0.775997C17.376 0.775997 18.64 0.855998 20.176 1.016V6.44ZM35.0328 35.672C32.7288 35.672 30.6008 35.112 28.6488 33.992C26.7288 32.84 25.1928 31.304 24.0408 29.384C22.9208 27.432 22.3608 25.32 22.3608 23.048C22.3608 20.776 22.9208 18.68 24.0408 16.76C25.1928 14.808 26.7288 13.272 28.6488 12.152C30.6008 11 32.7288 10.424 35.0328 10.424C37.3048 10.424 39.4008 11 41.3208 12.152C43.2408 13.272 44.7608 14.808 45.8808 16.76C47.0328 18.68 47.6088 20.776 47.6088 23.048C47.6088 25.32 47.0328 27.432 45.8808 29.384C44.7608 31.304 43.2408 32.84 41.3208 33.992C39.4008 35.112 37.3048 35.672 35.0328 35.672ZM34.9848 29.72C36.2008 29.72 37.3208 29.432 38.3448 28.856C39.3688 28.248 40.1848 27.432 40.7928 26.408C41.4008 25.384 41.7048 24.264 41.7048 23.048C41.7048 21.832 41.4008 20.712 40.7928 19.688C40.1848 18.664 39.3688 17.848 38.3448 17.24C37.3208 16.632 36.2008 16.328 34.9848 16.328C33.7688 16.328 32.6488 16.632 31.6248 17.24C30.6008 17.848 29.7848 18.664 29.1768 19.688C28.6008 20.712 28.3128 21.832 28.3128 23.048C28.3128 24.264 28.6008 25.384 29.1768 26.408C29.7848 27.432 30.6008 28.248 31.6248 28.856C32.6488 29.432 33.7688 29.72 34.9848 29.72ZM65.686 11L65.254 16.664C64.934 16.568 64.582 16.52 64.198 16.52C62.214 16.52 60.582 17.08 59.302 18.2C58.022 19.288 57.382 20.808 57.382 22.76V35H51.43V11H57.382V15.368C57.926 14.12 58.854 13.08 60.166 12.248C61.478 11.416 63.062 11 64.918 11H65.686ZM95.4393 35.624C91.8233 35.624 88.7833 34.888 86.3193 33.416C83.8553 31.944 82.1273 29.96 81.1353 27.464L87.1833 24.344C88.5913 27.768 91.3913 29.48 95.5833 29.48C96.8633 29.48 97.9833 29.272 98.9433 28.856C99.9353 28.44 100.687 27.928 101.199 27.32C101.711 26.68 101.967 26.024 101.967 25.352C101.967 24.552 101.679 23.896 101.103 23.384C100.527 22.84 99.6953 22.376 98.6073 21.992C97.5513 21.608 95.9513 21.128 93.8073 20.552C91.5353 19.912 89.6153 19.224 88.0473 18.488C86.4793 17.72 85.1833 16.696 84.1593 15.416C83.1673 14.136 82.6713 12.52 82.6713 10.568C82.6713 8.584 83.2153 6.856 84.3033 5.384C85.3913 3.88 86.8473 2.744 88.6713 1.976C90.4953 1.176 92.4793 0.775997 94.6233 0.775997C97.5673 0.775997 100.143 1.432 102.351 2.744C104.591 4.024 106.303 5.832 107.487 8.168L101.343 11.24C99.9993 8.392 97.7593 6.968 94.6233 6.968C93.0233 6.968 91.7113 7.336 90.6873 8.072C89.6953 8.808 89.1993 9.672 89.1993 10.664C89.1993 11.496 89.4393 12.152 89.9193 12.632C90.3993 13.08 91.0553 13.464 91.8873 13.784C92.7513 14.072 94.3193 14.536 96.5913 15.176C99.0873 15.88 101.151 16.616 102.783 17.384C104.415 18.12 105.775 19.16 106.863 20.504C107.983 21.816 108.543 23.496 108.543 25.544C108.543 27.56 107.967 29.336 106.815 30.872C105.695 32.376 104.127 33.544 102.111 34.376C100.127 35.208 97.9033 35.624 95.4393 35.624ZM124.002 35.672C121.698 35.672 119.57 35.112 117.618 33.992C115.698 32.84 114.162 31.304 113.01 29.384C111.89 27.432 111.33 25.32 111.33 23.048C111.33 20.776 111.89 18.68 113.01 16.76C114.162 14.808 115.698 13.272 117.618 12.152C119.57 11 121.698 10.424 124.002 10.424C126.274 10.424 128.37 11 130.29 12.152C132.21 13.272 133.73 14.808 134.85 16.76C136.002 18.68 136.578 20.776 136.578 23.048C136.578 25.32 136.002 27.432 134.85 29.384C133.73 31.304 132.21 32.84 130.29 33.992C128.37 35.112 126.274 35.672 124.002 35.672ZM123.954 29.72C125.17 29.72 126.29 29.432 127.314 28.856C128.338 28.248 129.154 27.432 129.762 26.408C130.37 25.384 130.674 24.264 130.674 23.048C130.674 21.832 130.37 20.712 129.762 19.688C129.154 18.664 128.338 17.848 127.314 17.24C126.29 16.632 125.17 16.328 123.954 16.328C122.738 16.328 121.618 16.632 120.594 17.24C119.57 17.848 118.754 18.664 118.146 19.688C117.57 20.712 117.282 21.832 117.282 23.048C117.282 24.264 117.57 25.384 118.146 26.408C118.754 27.432 119.57 28.248 120.594 28.856C121.618 29.432 122.738 29.72 123.954 29.72ZM146.259 28.232C146.259 28.744 146.371 29.112 146.595 29.336C146.851 29.56 147.251 29.672 147.795 29.672C148.179 29.672 148.691 29.624 149.331 29.528V35C148.147 35.192 147.043 35.288 146.019 35.288C144.163 35.288 142.739 34.808 141.747 33.848C140.787 32.856 140.307 31.112 140.307 28.616V1.4H146.259V28.232ZM170.838 11H176.79V35H170.838V32.504C169.046 34.616 166.726 35.672 163.878 35.672C161.478 35.672 159.366 35.128 157.542 34.04C155.718 32.952 154.31 31.448 153.318 29.528C152.326 27.608 151.83 25.448 151.83 23.048C151.83 20.648 152.326 18.488 153.318 16.568C154.31 14.648 155.718 13.144 157.542 12.056C159.366 10.936 161.478 10.376 163.878 10.376C166.662 10.376 168.982 11.432 170.838 13.544V11ZM164.022 30.104C165.974 30.104 167.59 29.432 168.87 28.088C170.182 26.744 170.838 25.048 170.838 23C170.838 20.952 170.198 19.272 168.918 17.96C167.638 16.648 166.006 15.992 164.022 15.992C162.166 15.992 160.646 16.68 159.462 18.056C158.278 19.432 157.686 21.096 157.686 23.048C157.686 25.032 158.278 26.712 159.462 28.088C160.646 29.432 162.166 30.104 164.022 30.104ZM193.89 10.376C195.298 10.376 196.722 10.68 198.162 11.288C199.602 11.864 200.834 12.92 201.858 14.456C202.914 15.992 203.442 18.056 203.442 20.648V35H197.49V20.648C197.49 18.856 196.978 17.576 195.954 16.808C194.962 16.008 193.794 15.608 192.45 15.608C191.138 15.608 190.002 16.088 189.042 17.048C188.114 17.976 187.65 19.48 187.65 21.56V35H181.698V11H187.65V13.016C188.514 12.216 189.474 11.576 190.53 11.096C191.586 10.616 192.706 10.376 193.89 10.376ZM226.103 11H232.055V35H226.103V32.504C224.311 34.616 221.991 35.672 219.143 35.672C216.743 35.672 214.631 35.128 212.807 34.04C210.983 32.952 209.575 31.448 208.583 29.528C207.591 27.608 207.095 25.448 207.095 23.048C207.095 20.648 207.591 18.488 208.583 16.568C209.575 14.648 210.983 13.144 212.807 12.056C214.631 10.936 216.743 10.376 219.143 10.376C221.927 10.376 224.247 11.432 226.103 13.544V11ZM219.287 30.104C221.239 30.104 222.855 29.432 224.135 28.088C225.447 26.744 226.103 25.048 226.103 23C226.103 20.952 225.463 19.272 224.183 17.96C222.903 16.648 221.271 15.992 219.287 15.992C217.431 15.992 215.911 16.68 214.727 18.056C213.543 19.432 212.951 21.096 212.951 23.048C212.951 25.032 213.543 26.712 214.727 28.088C215.911 29.432 217.431 30.104 219.287 30.104Z" fill="url(#paint0_linear_402_147)"/>
</g>
<defs>
<filter id="filter0_d_402_147" x="0.864014" y="0.776001" width="235.191" height="42.896" filterUnits="userSpaceOnUse" color-interpolation-filters="sRGB">
<feFlood flood-opacity="0" result="BackgroundImageFix"/>
<feColorMatrix in="SourceAlpha" type="matrix" values="0 0 0 0 0 0 0 0 0 0 0 0 0 0 0 0 0 0 127 0" result="hardAlpha"/>
<feOffset dy="4"/>
<feGaussianBlur stdDeviation="2"/>
<feComposite in2="hardAlpha" operator="out"/>
<feColorMatrix type="matrix" values="0 0 0 0 0 0 0 0 0 0 0 0 0 0 0 0 0 0 0.25 0"/>
<feBlend mode="normal" in2="BackgroundImageFix" result="effect1_dropShadow_402_147"/>
<feBlend mode="normal" in="SourceGraphic" in2="effect1_dropShadow_402_147" result="shape"/>
</filter>
<linearGradient id="paint0_linear_402_147" x1="4" y1="-6.49634e-06" x2="236.5" y2="40" gradientUnits="userSpaceOnUse">
<stop stop-color="#FCE608"/>
<stop offset="0.078125" stop-color="#FCE608"/>
<stop offset="0.34375" stop-color="#FF7586"/>
<stop offset="0.697917" stop-color="#B372CE"/>
<stop offset="1" stop-color="#6F86FF"/>
</linearGradient>
</defs>
</svg>
