<svg width="50" height="50" viewBox="0 0 50 50" fill="none" xmlns="http://www.w3.org/2000/svg">
<path d="M8.3335 9.37496V40.625C8.3335 42.0063 8.88223 43.3311 9.85898 44.3078C10.8357 45.2846 12.1605 45.8333 13.5418 45.8333H41.146C41.5604 45.8333 41.9578 45.6687 42.2509 45.3757C42.5439 45.0826 42.7085 44.6852 42.7085 44.2708C42.7085 43.8564 42.5439 43.459 42.2509 43.1659C41.9578 42.8729 41.5604 42.7083 41.146 42.7083H13.5418C12.9893 42.7083 12.4594 42.4888 12.0687 42.0981C11.678 41.7074 11.4585 41.1775 11.4585 40.625H41.146C41.5604 40.625 41.9578 40.4603 42.2509 40.1673C42.5439 39.8743 42.7085 39.4769 42.7085 39.0625V9.37496C42.7085 8.69099 42.5738 8.01372 42.312 7.38182C42.0503 6.74991 41.6666 6.17575 41.183 5.69211C40.6994 5.20847 40.1252 4.82483 39.4933 4.56309C38.8614 4.30134 38.1841 4.16663 37.5002 4.16663H13.5418C12.1605 4.16663 10.8357 4.71536 9.85898 5.69211C8.88223 6.66886 8.3335 7.99362 8.3335 9.37496ZM22.9168 16.7041C22.907 17.112 22.7381 17.4999 22.4461 17.7848C22.1542 18.0698 21.7623 18.2292 21.3543 18.2291C19.7918 18.2291 19.7918 16.6645 19.7918 16.6645V16.6458C19.7929 16.5525 19.7985 16.4594 19.8085 16.3666C19.9007 15.5619 20.2024 14.7954 20.6835 14.1437C21.6293 12.8666 23.3293 11.9312 26.0689 11.9791C28.0481 12.0145 29.8043 12.8437 30.9043 14.2083C32.0231 15.5979 32.4002 17.4791 31.6585 19.3312C30.9043 21.2166 29.1981 21.9666 28.2168 22.3958L28.1127 22.4437C27.5293 22.7 27.2522 22.8333 27.0856 22.9666L27.0835 22.9687V24.477C27.0838 24.8914 26.9194 25.289 26.6266 25.5822C26.3338 25.8754 25.9364 26.0403 25.522 26.0406C25.1076 26.0409 24.7101 25.8765 24.4169 25.5837C24.1237 25.2908 23.9588 24.8935 23.9585 24.4791V22.9166C23.9585 21.827 24.4835 21.0479 25.1314 20.527C25.6522 20.1104 26.3085 19.8229 26.7689 19.6187L26.8481 19.5833C27.9772 19.0854 28.5147 18.777 28.7585 18.1687C28.9016 17.8416 28.9505 17.4811 28.8997 17.1277C28.8489 16.7744 28.7004 16.4422 28.471 16.1687C28.0085 15.5958 27.1606 15.1229 26.0147 15.1041C24.0668 15.0708 23.421 15.6979 23.196 16.0041C23.047 16.2064 22.951 16.4427 22.9168 16.6916V16.7041ZM27.6043 30.2083C27.6043 30.7608 27.3848 31.2907 26.9941 31.6814C26.6034 32.0721 26.0735 32.2916 25.521 32.2916C24.9685 32.2916 24.4386 32.0721 24.0479 31.6814C23.6572 31.2907 23.4377 30.7608 23.4377 30.2083C23.4377 29.6558 23.6572 29.1259 24.0479 28.7352C24.4386 28.3445 24.9685 28.125 25.521 28.125C26.0735 28.125 26.6034 28.3445 26.9941 28.7352C27.3848 29.1259 27.6043 29.6558 27.6043 30.2083Z" fill="white"/>
</svg>
