<svg width="92" height="70" viewBox="0 0 92 70" fill="none" xmlns="http://www.w3.org/2000/svg">
<path d="M15.3553 53.4246C15.9135 52.8771 16.6636 52.5692 17.4487 52.5692H90.1059C91.4317 52.5692 92.0946 54.1431 91.1526 55.0498L76.7956 69.1291C76.2373 69.6765 75.4872 69.9844 74.7022 69.9844H2.06242C0.736617 69.9844 0.0737182 68.4106 1.01573 67.5039L15.3553 53.4246Z" fill="white"/>
<path d="M15.3553 0.870869C15.9135 0.323435 16.6636 0.0155029 17.4487 0.0155029H90.1059C91.4317 0.0155029 92.0946 1.58938 91.1526 2.49606L76.7956 16.5583C76.2373 17.1057 75.4872 17.4136 74.7022 17.4136H2.06242C0.736617 17.4136 0.0737182 15.8398 1.01573 14.9331L15.3553 0.870869Z" fill="white"/>
<path d="M76.7956 26.9767C76.2374 26.4293 75.4872 26.1213 74.7022 26.1213H2.06242C0.736617 26.1213 0.0737181 27.6952 1.01573 28.6019L15.3727 42.6641C15.931 43.2115 16.6811 43.5195 17.4661 43.5195H90.1233C91.4491 43.5195 92.112 41.9456 91.17 41.0389L76.7956 26.9767Z" fill="white"/>
</svg>
