<?xml version="1.0" encoding="UTF-8"?>
<svg width="90px" height="90px" viewBox="0 0 90 90" version="1.1" xmlns="http://www.w3.org/2000/svg" xmlns:xlink="http://www.w3.org/1999/xlink">
    <title>icon-circle-lumos-svg</title>
    <defs>
        <linearGradient x1="50%" y1="0%" x2="50%" y2="100%" id="linearGradient-1">
            <stop stop-color="#000000" offset="0%"></stop>
            <stop stop-color="#3C3C3C" offset="100%"></stop>
        </linearGradient>
    </defs>
    <g id="icon-circle-lumos-svg" stroke="none" stroke-width="1" fill="none" fill-rule="evenodd">
        <g id="Group-3" fill="url(#linearGradient-1)">
            <circle id="Oval-Copy-3" cx="45" cy="45" r="45"></circle>
        </g>
        <g id="Group" transform="translate(12.000000, 19.000000)" fill="#FFE300">
            <path d="M48.2307692,0 L66,19.1578947 L33,52 L0,19.1578947 L17.7692308,0 L48.2307692,0 Z M38.5,0 L16.5,22.0606061 L27.5,22.0606061 L27.5,22.0606061 L27.5,33.0909091 L27.5,33.0909091 L27.5792,33.0114909 C27.6232,32.9673697 27.6855333,32.9048646 27.7662,32.8239758 L28.0632,32.5261576 C28.0866667,32.5026263 28.1108667,32.4783596 28.1358,32.4533576 L28.4702,32.1180364 C28.655,31.9327273 28.8662,31.7209455 29.1038,31.4826909 L29.48,31.1054545 C29.568,31.0172121 29.6589333,30.9260283 29.7528,30.831903 L30.195,30.3884848 C30.2976667,30.2855354 30.4032667,30.1796444 30.5118,30.0708121 L31.02,29.5612121 C31.196,29.3847273 31.3786,29.2016242 31.5678,29.011903 L31.955,28.6236364 C32.087,28.4912727 32.2219333,28.3559677 32.3598,28.2177212 L32.7822,27.7941576 C32.9978,27.5779636 33.22,27.3551515 33.4488,27.1257212 L33.9152,26.6580364 C34.232,26.3403636 34.5605333,26.0109253 34.9008,25.6697212 L35.42,25.1490909 C38.94,21.6193939 43.6333333,16.9131313 49.5,11.030303 L49.5,11.030303 L38.5,11.030303 L38.5,0 Z" id="Combined-Shape"></path>
        </g>
    </g>
</svg>