<?xml version="1.0" encoding="UTF-8"?>
<svg width="28px" height="28px" viewBox="0 0 28 28" version="1.1" xmlns="http://www.w3.org/2000/svg" xmlns:xlink="http://www.w3.org/1999/xlink">
    <title>icon-airdrop-asset-solana</title>
    <g id="icon-airdrop-asset-solana" stroke="none" stroke-width="1" fill="none" fill-rule="evenodd">
        <g id="icon-airdrop-asset-sol" transform="translate(3.000000, 3.000000)" fill="#F4F4F4" fill-rule="nonzero">
            <path d="M3.57278483,17.2455922 C3.70770524,17.0884887 3.88901161,17 4.07875357,17 L21.6401349,17 C21.96055,17 22.1208067,17.4518808 21.8931045,17.7122396 L18.4230062,21.7544078 C18.288017,21.9115113 18.1067205,22 17.9169687,22 L0.359875948,22 C0.0394294061,22 -0.120794848,21.5481192 0.106891577,21.2877604 L3.57278483,17.2455922 Z" id="Path"></path>
            <path d="M3.57278483,0.245821383 C3.70770524,0.0884957424 3.88901161,0 4.07875357,0 L21.6401349,0 C21.96055,0 22.1208067,0.452305522 21.8931045,0.712879344 L18.4230062,4.75417417 C18.288017,4.91150092 18.1067205,5 17.9169687,5 L0.359875948,5 C0.0394294061,5 -0.120794848,4.54769114 0.106891577,4.28711732 L3.57278483,0.245821383 Z" id="Path"></path>
            <path d="M18.419506,8.29499408 C18.2845424,8.1062 18.1032803,8 17.9135646,8 L0.359807575,8 C0.0394219149,8 -0.120771898,8.5427763 0.106871269,8.85546815 L3.5763132,13.705126 C3.71121781,13.89384 3.89248973,14 4.08218581,14 L21.640152,14 C21.9606045,14 22.1207324,13.4573304 21.8931718,13.1445852 L18.419506,8.29499408 Z" id="Path"></path>
        </g>
    </g>
</svg>