<?xml version="1.0" encoding="UTF-8"?>
<svg width="80px" height="80px" viewBox="0 0 80 80" version="1.1" xmlns="http://www.w3.org/2000/svg" xmlns:xlink="http://www.w3.org/1999/xlink">
    <title>Artboard</title>
    <g id="Artboard" stroke="none" stroke-width="1" fill="none" fill-rule="evenodd">
        <g id="authy" fill="#FFFFFF" fill-rule="nonzero">
            <path d="M39.9990625,0 C62.091875,0 80,17.9078125 80,39.999375 C80,62.0925 62.091875,80 39.9990625,80 C17.9075,80 0,62.0925 0,39.999375 C0,17.9078125 17.9075,0 39.9990625,0 Z M16.62625,26.1575 C16.5608137,26.2118586 16.4977351,26.2689943 16.4371875,26.32875 C16.4065625,26.359375 16.3815625,26.391875 16.35125,26.419375 C16.32,26.449375 16.288125,26.47625 16.2584375,26.50625 C16.1978125,26.5665625 16.1425,26.63 16.0896875,26.6928125 C9.46,33.704375 9.5740625,44.7965625 16.4375,51.660625 L26.02875,61.25 C27.41625,62.6353125 29.6609375,62.6353125 31.048125,61.25 C32.43625,59.8634375 32.43625,57.6146875 31.0515625,56.23125 L21.46,46.6403125 C17.273125,42.455 17.245,35.6625 21.373125,31.44125 C25.59375,27.313125 32.3825,27.343125 36.57,31.5284375 L46.1609375,41.115625 C47.5453125,42.501875 49.793125,42.501875 51.1809375,41.115625 C52.565625,39.7296875 52.56875,37.48375 51.1809375,36.0975 L41.589375,26.50625 C34.7265625,19.641875 23.6346875,19.53125 16.62625,26.1575 Z M48.94875,18.7553125 C47.5628125,20.141875 47.5628125,22.3875 48.9525,23.77375 L58.5403125,33.3653125 C62.7246875,37.5503125 62.751875,44.341875 58.6240625,48.5640625 C54.4021875,52.6890625 47.615625,52.6615625 43.429375,48.4759375 L33.838125,38.885625 C32.45125,37.4990625 30.2028125,37.4990625 28.8175,38.885625 C27.4290625,40.2709375 27.4290625,42.52375 28.8175,43.9059375 L38.405625,53.4978125 C45.270625,60.361875 56.36125,60.4734375 63.3709375,53.8465625 C63.4359375,53.7890625 63.4971875,53.735625 63.5615625,53.675 C63.5909375,53.6453125 63.6184375,53.615 63.646875,53.584375 C63.678125,53.5546875 63.7084375,53.5271875 63.7375,53.4940625 C63.7990625,53.436875 63.8515625,53.3740625 63.90625,53.3084375 C70.5359375,46.2996875 70.425,35.21125 63.561875,28.343125 L53.970625,18.755 C52.584375,17.3665625 50.33375,17.3665625 48.94875,18.7553125 Z" id="Combined-Shape"></path>
        </g>
    </g>
</svg>