<svg width="24" height="20" viewBox="0 0 24 20" fill="none" xmlns="http://www.w3.org/2000/svg">
<path d="M4.22037 14.5422C4.3576 14.4007 4.54201 14.321 4.735 14.321H22.597C22.9229 14.321 23.0859 14.728 22.8543 14.9625L19.3248 18.6032C19.1875 18.7447 19.0031 18.8244 18.8101 18.8244H0.952462C0.62653 18.8244 0.463563 18.4174 0.695147 18.1829L4.22037 14.5422Z" fill="#F4F4F4"/>
<path d="M4.22037 0.952509C4.3576 0.81095 4.54201 0.731323 4.735 0.731323H22.597C22.9229 0.731323 23.0859 1.1383 22.8543 1.37276L19.3248 5.00905C19.1875 5.15061 19.0031 5.23024 18.8101 5.23024H0.952462C0.62653 5.23024 0.463563 4.82326 0.695147 4.5888L4.22037 0.952509Z" fill="#F4F4F4"/>
<path d="M19.3248 7.70312C19.1875 7.56156 19.0031 7.48193 18.8101 7.48193H0.952462C0.62653 7.48193 0.463563 7.88891 0.695147 8.12337L4.22465 11.7597C4.36189 11.9012 4.5463 11.9808 4.73928 11.9808H22.6012C22.9272 11.9808 23.0901 11.5739 22.8586 11.3394L19.3248 7.70312Z" fill="#F4F4F4"/>
</svg>
