<?xml version="1.0" encoding="UTF-8"?>
<svg width="28px" height="28px" viewBox="0 0 28 28" version="1.1" xmlns="http://www.w3.org/2000/svg" xmlns:xlink="http://www.w3.org/1999/xlink">
    <title>icon-airdrop-asset-kin</title>
    <g id="icon-airdrop-asset-kin" stroke="none" stroke-width="1" fill="none" fill-rule="evenodd">
        <g id="Kin-(KIN)" transform="translate(3.000000, 3.000000)" fill="#FFFFFF">
            <path d="M14.9107237,10.9320288 L14.9107237,11.0679712 C14.9107237,13.0051493 16.5377707,14.5911432 18.5250924,14.5911432 L20.5124142,14.5911432 C21.3375594,14.5911432 22,15.2368692 22,16.0411946 L22,21.9886715 L15.7939778,21.9886715 C14.9688325,21.9886715 14.306392,21.3429454 14.306392,20.53862 L14.306392,18.1029866 C14.306392,16.1658084 12.679345,14.5798146 10.6920232,14.5798146 L10.5525621,14.5798146 C8.56524036,14.5798146 6.93819334,16.1658084 6.93819334,18.1029866 L6.93819334,22 L0,22 L0,0 L6.93819334,0 L6.93819334,3.9423275 C6.93819334,5.87950566 8.56524036,7.46549949 10.5525621,7.46549949 L10.6920232,7.46549949 C12.679345,7.46549949 14.306392,5.87950566 14.306392,3.9423275 L14.306392,1.45005149 C14.306392,0.645726056 14.9688325,0 15.7939778,0 L22,0 L22,5.94747683 C22,6.75180227 21.3375594,7.39752832 20.5124142,7.39752832 L18.5250924,7.39752832 C16.5377707,7.40885685 14.9107237,8.99485067 14.9107237,10.9320288 Z" id="Path"></path>
        </g>
    </g>
</svg>