<svg width="55" height="55" viewBox="0 0 55 55" fill="none" xmlns="http://www.w3.org/2000/svg">
<path d="M43.2144 11.2947V40.2679C43.214 40.5133 43.3054 40.75 43.4708 40.9314C43.6361 41.1128 43.8634 41.2257 44.1078 41.2478C44.3523 41.27 44.5961 41.1999 44.7914 41.0512C44.9867 40.9026 45.1193 40.6862 45.163 40.4447L45.1787 40.2679V13.75H47.6341C48.4968 13.7501 49.3279 14.0745 49.9625 14.6589C50.5971 15.2433 50.9888 16.0449 51.0598 16.9047L51.0716 17.1875V40.759C51.0717 42.3896 50.4478 43.9585 49.3279 45.1437C48.2081 46.329 46.6771 47.0408 45.0491 47.1331L44.6876 47.1429H10.3126C8.68201 47.143 7.11315 46.5191 5.9279 45.3993C4.74265 44.2794 4.03085 42.7484 3.93853 41.1204L3.92871 40.759V11.2947C3.92874 10.432 4.25315 9.60084 4.83755 8.96623C5.42194 8.33162 6.22358 7.93995 7.08335 7.86896L7.36621 7.85718H39.7769C40.6396 7.85721 41.4708 8.18162 42.1054 8.76601C42.74 9.35041 43.1317 10.1521 43.2026 11.0118L43.2144 11.2947V40.2679V11.2947ZM19.146 25.5436H14.2412C13.3785 25.5436 12.5474 25.8681 11.9128 26.4524C11.2782 27.0368 10.8865 27.8385 10.8155 28.6983L10.8037 28.9811V33.884C10.8037 34.7467 11.1282 35.5778 11.7125 36.2124C12.2969 36.847 13.0986 37.2387 13.9584 37.3097L14.2412 37.3215H19.146C20.009 37.3214 20.8404 36.9967 21.4751 36.4119C22.1098 35.8271 22.5012 35.025 22.5717 34.1649L22.5816 33.884V28.9811C22.582 28.1181 22.2578 27.2864 21.6734 26.6514C21.089 26.0164 20.287 25.6244 19.4269 25.5534L19.146 25.5436ZM34.8662 34.375H27.9912L27.7909 34.3888C27.4382 34.4373 27.1151 34.6118 26.8812 34.8801C26.6473 35.1484 26.5184 35.4923 26.5184 35.8483C26.5184 36.2042 26.6473 36.5481 26.8812 36.8164C27.1151 37.0847 27.4382 37.2592 27.7909 37.3077L27.9912 37.3215H34.8662L35.0666 37.3077C35.4192 37.2592 35.7423 37.0847 35.9762 36.8164C36.2101 36.5481 36.339 36.2042 36.339 35.8483C36.339 35.4923 36.2101 35.1484 35.9762 34.8801C35.7423 34.6118 35.4192 34.4373 35.0666 34.3888L34.8662 34.375ZM14.2412 28.49H19.146C19.2564 28.4901 19.3635 28.5274 19.4501 28.5958C19.5367 28.6642 19.5977 28.7598 19.6234 28.8672L19.6371 28.9811V33.884C19.6369 33.9946 19.5994 34.1019 19.5306 34.1886C19.4618 34.2752 19.3657 34.3361 19.258 34.3613L19.146 34.375H14.2412C14.1306 34.3749 14.0232 34.3373 13.9366 34.2685C13.85 34.1997 13.7891 34.1037 13.7639 33.9959L13.7501 33.884V28.9811C13.7499 28.8701 13.7872 28.7624 13.8561 28.6753C13.9249 28.5883 14.0212 28.5271 14.1292 28.5018L14.2412 28.49H19.146H14.2412ZM34.8662 25.5436H27.9912L27.7909 25.5554C27.4368 25.6023 27.1118 25.7763 26.8764 26.045C26.641 26.3136 26.5112 26.6586 26.5112 27.0158C26.5112 27.373 26.641 27.7181 26.8764 27.9867C27.1118 28.2554 27.4368 28.4294 27.7909 28.4763L27.9912 28.49H34.8662L35.0666 28.4763C35.4207 28.4294 35.7457 28.2554 35.9811 27.9867C36.2165 27.7181 36.3462 27.373 36.3462 27.0158C36.3462 26.6586 36.2165 26.3136 35.9811 26.045C35.7457 25.7763 35.4207 25.6023 35.0666 25.5554L34.8662 25.5436ZM34.8662 16.6906H12.2769L12.0766 16.7043C11.724 16.7528 11.4008 16.9274 11.1669 17.1957C10.933 17.464 10.8042 17.8079 10.8042 18.1638C10.8042 18.5197 10.933 18.8636 11.1669 19.1319C11.4008 19.4002 11.724 19.5747 12.0766 19.6233L12.2769 19.637H34.8662L35.0666 19.6233C35.4192 19.5747 35.7423 19.4002 35.9762 19.1319C36.2101 18.8636 36.339 18.5197 36.339 18.1638C36.339 17.8079 36.2101 17.464 35.9762 17.1957C35.7423 16.9274 35.4192 16.7528 35.0666 16.7043L34.8662 16.6906Z" fill="white"/>
</svg>
