<?xml version="1.0" encoding="UTF-8"?>
<svg width="56px" height="56px" viewBox="0 0 56 56" version="1.1" xmlns="http://www.w3.org/2000/svg" xmlns:xlink="http://www.w3.org/1999/xlink">
    <title>Artboard</title>
    <g id="Artboard" stroke="none" stroke-width="1" fill="none" fill-rule="evenodd">
        <g id="Group" transform="translate(8.000000, 4.000000)" fill-rule="nonzero">
            <path d="M12.0380003,48 L12.8840719,42.5676502 L10.9994191,42.523498 L2,42.523498 L8.25413522,2.43825098 C8.27354796,2.31724138 8.33663934,2.20440811 8.42884981,2.12428013 C8.52106029,2.04415215 8.63915441,2 8.76210172,2 L23.9363874,2 C28.9739914,2 32.4504882,3.05965162 34.2655786,5.15115535 C35.1165034,6.13231426 35.6584422,7.15762531 35.9205141,8.28595805 C36.1955278,9.4698898 36.200381,10.8843939 35.9318382,12.6095983 L35.9124254,12.7355137 L35.9124254,13.8409527 L36.7633502,14.3282616 C37.4800036,14.7125489 38.0494437,15.1524351 38.4862302,15.6560967 C39.2142076,16.4949876 39.6849664,17.5611802 39.8839469,18.82524 C40.0893983,20.1252755 40.0214537,21.672236 39.6849664,23.4236047 C39.2967117,25.438251 38.6690334,27.1928902 37.8213441,28.6286527 C37.0415994,29.9515819 36.0483146,31.0488446 34.8689911,31.8991824 C33.7430526,32.7070032 32.4051918,33.3202275 30.8926164,33.7126911 C29.4269551,34.0986136 27.7558424,34.2932101 25.922957,34.2932101 L24.7420158,34.2932101 C23.8975619,34.2932101 23.077374,34.6006399 22.4335184,35.1517241 C21.788045,35.7142552 21.3609649,36.4828297 21.229929,37.3233558 L21.140954,37.8123 L19.6461736,47.3867757 L19.578229,47.7383576 C19.560434,47.8495556 19.5296972,47.9051546 19.4844008,47.9427657 C19.4439576,47.9771063 19.3857194,48 19.3290989,48 L12.0380003,48 Z" id="Path" fill="#253B80"></path>
            <path d="M36.9573366,12 L36.9573366,12 L36.9573366,12 C36.9125667,12.2942248 36.8614011,12.5950244 36.8038398,12.9040426 C34.8259701,23.3432697 28.0593209,26.949578 19.4171332,26.949578 L15.0168925,26.949578 C13.9600033,26.949578 13.0694023,27.7385606 12.9047131,28.8102621 L12.9047131,28.8102621 L12.9047131,28.8102621 L10.6518282,43.4984896 L10.0138573,47.6620169 C9.90672933,48.3655264 10.4343745,49 11.1251099,49 L18.9294612,49 C19.8536396,49 20.6387116,48.3096402 20.7842137,47.3727232 L20.8609621,46.9650822 L22.3303739,37.3789427 L22.4247104,36.8529542 C22.5686137,35.9127499 23.3552846,35.22239 24.279463,35.22239 L25.446678,35.22239 C33.0079927,35.22239 38.9272118,32.0664594 40.6572483,22.9339849 C41.3799622,19.1189249 41.0058138,15.9334074 39.0935,13.6930253 C38.5146892,13.0174589 37.7967721,12.4569525 36.9573366,12 Z" id="Path" fill="#179BD7"></path>
            <path d="M34.9355182,11.7144006 C34.6339826,11.6259051 34.3228744,11.5454545 34.0037891,11.4730491 C33.6831084,11.4022526 33.3544506,11.3395012 33.0162202,11.2847949 C31.8324137,11.0917136 30.535332,11 29.1457156,11 L17.4161404,11 C17.1273682,11 16.8529549,11.0659694 16.6072592,11.1850362 C16.0664096,11.4473049 15.6643622,11.9637973 15.5670411,12.5961384 L13.0717942,28.534996 L13,29 C13.1643289,27.9509252 14.0529815,27.1786002 15.1075583,27.1786002 L19.4981719,27.1786002 C28.1214518,27.1786002 34.8732965,23.6468222 36.8468391,13.4296058 C36.9058698,13.1271118 36.9553281,12.8326629 37,12.54465 C36.5006315,12.2775543 35.959782,12.0490748 35.3774513,11.8543846 C35.2338629,11.8061142 35.0854883,11.7594529 34.9355182,11.7144006 Z" id="Path" fill="#222D65"></path>
            <path d="M15.757872,12.6260157 C15.8578544,11.9815132 16.2708967,11.4550876 16.8265369,11.1894148 C17.0805907,11.0680581 17.3608693,11.00082 17.6575386,11.00082 L29.7078828,11.00082 C31.1355011,11.00082 32.4680542,11.0942974 33.6842342,11.2910921 C34.0317142,11.3468505 34.3693598,11.4108088 34.6988102,11.4829668 C35.0266215,11.5567648 35.3462376,11.6387626 35.6560193,11.7289601 C35.8100906,11.7748789 35.9625229,11.8224376 36.111677,11.8699963 C36.7099327,12.0684309 37.2655729,12.3029445 37.7785976,12.5735371 C38.3817704,8.72456206 37.7736804,6.10391353 35.6937176,3.73089825 C33.4006774,1.1184495 29.2620594,0 23.9662675,0 L8.59191645,0 C7.51013909,0 6.58735021,0.787178531 6.42016644,1.85806933 L0.0163722477,42.4715617 C-0.109835112,43.2751398 0.509728289,44 1.31942226,44 L10.8111991,44 L13.1943874,28.8714126 L15.757872,12.6260157 Z" id="Path" fill="#253B80"></path>
        </g>
    </g>
</svg>