<?xml version="1.0" encoding="UTF-8"?>
<svg width="117px" height="28px" viewBox="0 0 117 28" version="1.1" xmlns="http://www.w3.org/2000/svg" xmlns:xlink="http://www.w3.org/1999/xlink">
    <title>lumos-logo</title>
    <g id="lumos-logo" stroke="none" stroke-width="1" fill="none" fill-rule="evenodd">
        <g id="Group" transform="translate(0.000000, 3.000000)" fill="currentColor">
            <path d="M20.4615385,0 L28,8.10526316 L14,22 L0,8.10526316 L7.53846154,0 L20.4615385,0 Z M16.3333333,0 L7,9.33333333 L11.6666667,9.33333333 L11.6666667,9.33333333 L11.6666667,14 L11.6666667,14 L11.8993536,13.767313 C11.9338258,13.7328409 11.9721282,13.6945385 12.0142608,13.6524059 L12.1521494,13.5145173 C12.3513218,13.3153449 12.611778,13.0548887 12.933518,12.7331487 L13.6085975,12.0580691 C13.7579768,11.9086899 13.9159741,11.7506925 14.0825895,11.5840772 L14.9874833,10.6791833 C15.4432817,10.223385 15.9460005,9.72066619 16.4956397,9.17102698 L17.2281728,8.4384939 C17.3967033,8.26996341 17.569064,8.09760268 17.745255,7.92141172 L18.2853186,7.38134811 C18.46917,7.19749667 18.6568517,7.00981499 18.8483636,6.81830307 L21,4.66666667 L16.3333333,4.66666667 L16.3333333,0 Z" id="Combined-Shape"></path>
        </g>
        <text id="LUMOS" fill-rule="nonzero" font-family="MontserratRoman-Bold, Montserrat" font-size="21" font-weight="bold" letter-spacing="-0.5" fill="currentColor">
            <tspan x="36" y="22">LUMOS</tspan>
        </text>
    </g>
</svg>