<svg width="50" height="50" viewBox="0 0 50 50" fill="none" xmlns="http://www.w3.org/2000/svg">
<circle cx="25" cy="25" r="25" fill="#C4C4C4"/>
<path d="M25 50C38.8071 50 50 38.8071 50 25C50 11.1929 38.8071 0 25 0C11.1929 0 0 11.1929 0 25C0 38.8071 11.1929 50 25 50Z" fill="url(#paint0_linear_565_311)"/>
<path d="M43.1969 25.3571H38.7274C38.7274 16.3145 31.3176 8.98438 22.1767 8.98438C13.1489 8.98438 5.80924 16.135 5.62963 25.0228C5.44377 34.2098 14.1567 42.1875 23.4448 42.1875H24.6131C32.8017 42.1875 43.777 35.8464 45.4918 28.1201C45.8086 26.6958 44.6711 25.3571 43.1969 25.3571ZM15.5347 25.7599C15.5347 26.9692 14.535 27.9582 13.3126 27.9582C12.0902 27.9582 11.0905 26.9687 11.0905 25.7599V22.2037C11.0905 20.9944 12.0902 20.0054 13.3126 20.0054C14.535 20.0054 15.5347 20.9944 15.5347 22.2037V25.7599ZM23.251 25.7599C23.251 26.9692 22.2512 27.9582 21.0288 27.9582C19.8065 27.9582 18.8067 26.9687 18.8067 25.7599V22.2037C18.8067 20.9944 19.8069 20.0054 21.0288 20.0054C22.2512 20.0054 23.251 20.9944 23.251 22.2037V25.7599Z" fill="url(#paint1_linear_565_311)"/>
<defs>
<linearGradient id="paint0_linear_565_311" x1="25" y1="0" x2="25" y2="50" gradientUnits="userSpaceOnUse">
<stop stop-color="#534BB1"/>
<stop offset="1" stop-color="#551BF9"/>
</linearGradient>
<linearGradient id="paint1_linear_565_311" x1="25.5859" y1="8.98438" x2="25.5859" y2="42.1875" gradientUnits="userSpaceOnUse">
<stop stop-color="white"/>
<stop offset="1" stop-color="white" stop-opacity="0.82"/>
</linearGradient>
</defs>
</svg>
