<svg width="50" height="50" viewBox="0 0 50 50" fill="none" xmlns="http://www.w3.org/2000/svg">
<circle cx="25" cy="25" r="25" fill="#131313"/>
<path d="M25.6127 39.6209C25.9592 39.6209 26.2402 39.8987 26.2402 40.2415C26.2402 40.5842 25.9592 40.862 25.6127 40.862C25.2662 40.862 24.9853 40.5842 24.9853 40.2415C24.9853 39.8987 25.2662 39.6209 25.6127 39.6209ZM24.9311 9.97654C25.2377 10.0019 25.4853 10.2342 25.5269 10.5354L26.2731 15.9578C26.5238 17.7493 28.6844 18.5255 30.0182 17.3081L37.4954 10.5025C37.6757 10.3383 37.9566 10.3497 38.1228 10.5279C38.2752 10.6914 38.2798 10.9417 38.1335 11.1105L31.6132 18.6317C30.4129 20.0139 31.2986 22.1722 33.1283 22.3263L38.8814 22.8809C39.1679 22.9085 39.3776 23.1603 39.3496 23.4435C39.3265 23.6769 39.1467 23.8655 38.9121 23.9021L32.8669 24.846C31.1118 25.0853 30.3169 27.1638 31.4585 28.5141L33.5837 31.0195C33.7549 31.2213 33.7282 31.5221 33.5238 31.6912C33.3508 31.8346 33.1002 31.8401 32.9207 31.7046L30.3009 29.7261C28.8871 28.6629 26.8493 29.5666 26.6999 31.3261L26.1226 38.1885C26.0987 38.472 25.8468 38.6827 25.5599 38.6591C25.3164 38.6391 25.1196 38.4547 25.0866 38.2155L24.1712 31.5867C23.9258 29.7952 21.7652 29.019 20.4261 30.2364L12.4718 37.4792C12.3072 37.6291 12.0507 37.6188 11.899 37.4561C11.7597 37.3068 11.7555 37.0783 11.8891 36.9242L18.8311 28.9128C20.0314 27.5306 19.1511 25.3723 17.3213 25.2182L11.5669 24.6635C11.2804 24.6359 11.0708 24.384 11.0987 24.1009C11.1218 23.8675 11.3016 23.6789 11.5361 23.6422L17.5774 22.6985C19.3326 22.4592 20.1327 20.3807 18.9911 19.0304L17.5444 17.3249C17.3321 17.0747 17.3654 16.7017 17.6187 16.492C17.8334 16.3142 18.1443 16.3074 18.3668 16.4755L20.1434 17.8184C21.5572 18.8816 23.595 17.9779 23.7444 16.2184L24.2223 10.5688C24.2525 10.2119 24.5698 9.9467 24.9311 9.97654ZM9.62744 23.4667C9.97397 23.4667 10.2549 23.7446 10.2549 24.0873C10.2549 24.43 9.97397 24.7079 9.62744 24.7079C9.28092 24.7079 9 24.43 9 24.0873C9 23.7446 9.28092 23.4667 9.62744 23.4667ZM41.0961 22.8366C41.4426 22.8366 41.7235 23.1145 41.7235 23.4572C41.7235 23.7999 41.4426 24.0777 41.0961 24.0777C40.7496 24.0777 40.4686 23.7999 40.4686 23.4572C40.4686 23.1145 40.7496 22.8366 41.0961 22.8366ZM24.8405 8C25.187 8 25.4679 8.27784 25.4679 8.62058C25.4679 8.96332 25.187 9.24116 24.8405 9.24116C24.494 9.24116 24.2131 8.96332 24.2131 8.62058C24.2131 8.27784 24.494 8 24.8405 8Z" fill="url(#paint0_linear_565_324)"/>
<path d="M25.2169 29.6343C28.4902 29.6343 31.1438 27.0098 31.1438 23.7722C31.1438 20.5347 28.4902 17.9102 25.2169 17.9102C21.9435 17.9102 19.2899 20.5347 19.2899 23.7722C19.2899 27.0098 21.9435 29.6343 25.2169 29.6343Z" fill="url(#paint1_radial_565_324)"/>
<defs>
<linearGradient id="paint0_linear_565_324" x1="13.2757" y1="13.2272" x2="32.0411" y2="30.2151" gradientUnits="userSpaceOnUse">
<stop stop-color="#FFC10B"/>
<stop offset="1" stop-color="#FB3F2E"/>
</linearGradient>
<radialGradient id="paint1_radial_565_324" cx="0" cy="0" r="1" gradientUnits="userSpaceOnUse" gradientTransform="translate(23.8633 21.6081) rotate(67.5196) scale(8.61696 8.70071)">
<stop stop-color="#FFC10B"/>
<stop offset="1" stop-color="#FB3F2E"/>
</radialGradient>
</defs>
</svg>
